<?xml version="1.0" standalone="no"?>
<!DOCTYPE svg PUBLIC "-//W3C//DTD SVG 20010904//EN"
 "http://www.w3.org/TR/2001/REC-SVG-20010904/DTD/svg10.dtd">
<svg version="1.0" xmlns="http://www.w3.org/2000/svg"
 width="700.000000pt" height="700.000000pt" viewBox="0 0 700.000000 700.000000"
 preserveAspectRatio="xMidYMid meet">
<metadata>
Created by potrace 1.11, written by Peter Selinger 2001-2013
</metadata>
<g transform="translate(0.000000,700.000000) scale(0.100000,-0.100000)"
fill="#000000" stroke="none">
<path d="M3277 6984 c-1 -1 -51 -5 -112 -9 -60 -4 -112 -8 -115 -10 -3 -1 -27
-6 -55 -9 -27 -4 -70 -9 -95 -13 -25 -3 -45 -5 -45 -3 0 2 -10 -2 -22 -8 -12
-7 -39 -14 -60 -17 -42 -6 -78 -13 -78 -15 0 -2 -10 -4 -75 -18 -57 -13 -278
-79 -305 -92 -11 -5 -49 -20 -85 -33 -36 -14 -95 -39 -133 -56 -37 -17 -71
-31 -75 -31 -16 0 -422 -224 -432 -239 -3 -4 -23 -18 -45 -31 -43 -26 -44 -27
-91 -65 -18 -14 -37 -25 -43 -25 -6 0 -11 -3 -11 -7 0 -5 -16 -19 -35 -32 -19
-13 -43 -31 -53 -40 -11 -9 -41 -34 -67 -56 -191 -161 -433 -415 -551 -578
-59 -81 -214 -317 -235 -357 -13 -25 -26 -47 -29 -50 -3 -3 -16 -27 -30 -55
-14 -27 -32 -61 -41 -75 -9 -14 -20 -36 -24 -50 -4 -14 -25 -61 -45 -105 -21
-44 -43 -98 -50 -120 -7 -22 -16 -44 -20 -50 -8 -10 -49 -128 -55 -155 -2 -8
-9 -28 -15 -45 -6 -16 -14 -37 -16 -45 -2 -8 -15 -58 -28 -110 -14 -52 -25
-95 -26 -95 -2 0 -5 -13 -20 -95 -19 -97 -28 -155 -35 -220 -2 -19 -4 -35 -5
-35 -12 0 -20 -798 -8 -845 3 -14 9 -51 13 -84 8 -66 10 -83 35 -216 7 -36 13
-70 14 -77 1 -7 5 -16 9 -19 4 -4 7 -16 7 -27 0 -12 4 -34 9 -51 5 -17 14 -49
20 -71 6 -22 21 -71 33 -110 12 -38 23 -72 23 -75 4 -12 55 -152 65 -175 49
-112 104 -235 114 -255 22 -46 99 -184 123 -222 12 -21 23 -39 23 -42 0 -5
143 -219 172 -256 154 -200 181 -230 349 -399 157 -157 247 -236 367 -321 23
-16 42 -35 42 -41 0 -5 4 -8 9 -5 4 3 16 -3 26 -14 10 -11 23 -20 30 -20 7 0
20 -9 30 -20 10 -11 24 -20 32 -20 7 0 13 -4 13 -10 0 -5 4 -10 9 -10 5 0 36
-17 68 -38 32 -21 65 -42 73 -46 8 -3 47 -25 85 -47 83 -47 263 -135 315 -154
3 -1 22 -9 42 -19 21 -9 39 -15 40 -14 2 1 13 -4 26 -11 13 -7 31 -14 40 -16
9 -2 47 -15 83 -29 36 -13 95 -32 130 -41 35 -9 68 -20 74 -23 5 -3 16 -7 25
-9 8 -1 33 -7 55 -12 22 -6 78 -17 125 -26 47 -9 92 -19 100 -22 8 -3 26 -7
40 -9 14 -2 34 -5 46 -8 62 -16 198 -21 549 -21 360 0 427 3 540 21 22 3 49 8
60 9 11 2 20 4 20 5 0 2 16 5 60 14 76 14 94 18 155 32 36 8 92 23 125 33 33
10 84 26 113 35 63 19 231 80 282 103 102 45 170 77 215 100 116 59 173 90
202 111 17 12 34 22 38 22 10 0 234 151 299 202 51 39 57 44 136 108 110 90
337 316 434 431 34 40 141 180 151 197 6 9 13 19 16 22 9 7 119 170 119 176 0
2 15 28 34 57 72 112 236 435 236 466 0 6 4 19 10 29 20 37 41 92 75 197 39
119 100 341 109 400 2 11 9 52 16 90 7 39 14 84 15 100 6 48 16 117 22 150 10
52 13 657 3 720 -5 33 -11 80 -14 105 -9 69 -14 103 -25 167 -6 32 -13 76 -17
98 -3 22 -10 47 -14 55 -4 8 -8 18 -8 23 -1 6 -18 91 -28 132 -22 93 -118 359
-181 500 -46 103 -107 226 -142 285 -5 8 -28 46 -50 83 -23 38 -41 72 -41 77
0 4 -3 10 -7 12 -9 4 -73 93 -73 102 0 6 -153 209 -179 236 -9 9 -34 39 -56
66 -40 50 -139 156 -185 199 -14 13 -48 45 -76 72 -251 238 -540 437 -859 592
-68 34 -147 70 -165 76 -3 1 -18 7 -35 14 -77 33 -215 84 -260 96 -27 7 -90
25 -140 39 -88 26 -202 52 -258 61 -15 2 -31 6 -35 9 -4 2 -32 7 -62 10 -30 4
-77 11 -105 16 -27 5 -57 9 -65 9 -8 0 -46 3 -85 6 -61 6 -533 14 -538 9z
m-21 -383 c7 -1 19 -18 27 -38 15 -39 52 -122 92 -205 21 -45 22 -47 33 -25 6
12 20 49 31 82 11 33 31 89 45 125 l24 65 47 3 c26 2 51 0 56 -5 6 -6 21 -313
21 -456 0 -35 0 -35 -45 -40 -23 -3 -41 1 -48 10 -7 7 -13 54 -14 106 -4 174
-3 172 -33 82 -37 -109 -41 -115 -90 -119 -48 -5 -45 -9 -95 104 l-38 85 3
-135 3 -135 -42 -6 c-24 -3 -47 -3 -52 0 -5 4 -12 103 -15 221 -4 118 -8 227
-10 242 -2 22 2 29 22 36 15 5 35 7 47 6 11 -1 25 -3 31 -3z m889 -62 c90 -19
152 -58 161 -101 1 -5 2 -9 4 -10 5 -7 4 -88 -2 -88 -3 0 -9 -13 -13 -30 -7
-32 -53 -77 -89 -86 l-23 -5 33 -106 c19 -59 34 -108 34 -111 0 -2 -15 -1 -32
3 -18 3 -37 7 -43 9 -26 5 -36 23 -65 114 -17 53 -38 103 -45 111 -17 17 -14
23 -42 -94 l-19 -80 -38 1 c-58 2 -62 12 -42 101 10 43 20 89 22 102 3 14 7
28 9 31 2 4 7 22 10 41 3 19 8 42 11 51 6 21 14 56 18 88 12 78 16 83 60 76
22 -3 64 -11 91 -17z m-1217 -77 c35 -67 88 -165 112 -207 36 -62 91 -165 88
-166 -2 0 -12 -3 -23 -6 -62 -16 -83 -15 -89 4 -16 47 -30 54 -82 42 -71 -16
-78 -17 -90 -18 -6 -1 -9 -16 -8 -33 4 -45 -15 -65 -65 -73 l-43 -6 6 118 c3
65 9 161 13 213 4 52 7 113 7 135 1 45 16 61 67 70 18 3 35 8 38 11 9 9 41
-30 69 -84z m-393 -49 c19 -46 13 -52 -84 -84 -36 -12 -68 -23 -70 -25 -5 -5
30 -104 38 -104 3 0 16 7 27 15 12 8 24 11 28 7 4 -3 10 -1 14 6 5 6 17 13 27
15 11 2 28 8 39 12 20 9 32 -4 42 -42 10 -36 0 -47 -62 -67 -86 -28 -90 -34
-64 -90 12 -25 26 -46 31 -46 4 0 25 7 46 16 107 46 111 47 135 5 18 -32 18
-34 1 -47 -20 -15 -227 -94 -246 -94 -7 0 -25 35 -41 78 -15 42 -36 96 -47
119 -10 24 -19 45 -19 47 0 3 -4 15 -9 28 -5 13 -10 28 -11 33 -1 6 -5 15 -10
20 -4 6 -11 25 -15 43 -3 17 -11 32 -17 32 -6 0 -8 3 -5 6 3 4 2 14 -3 23 -13
25 -2 35 75 65 39 15 90 35 115 46 63 26 68 25 85 -17z m2008 10 c15 -7 27
-17 27 -22 0 -16 -57 -159 -77 -194 -3 -5 4 -3 16 5 12 7 21 16 21 20 0 5 5 8
10 8 6 0 19 8 29 18 32 29 72 62 77 62 2 0 13 9 25 21 20 20 32 20 92 -3 35
-14 34 -22 -9 -55 -19 -15 -47 -38 -62 -51 -15 -12 -42 -32 -60 -45 -41 -28
-45 -41 -33 -118 5 -35 13 -97 16 -138 l7 -74 -28 7 c-44 11 -84 44 -83 69 0
12 -2 42 -5 67 -15 117 -17 136 -17 153 0 9 -2 17 -4 17 -2 0 -20 -44 -41 -97
-45 -117 -56 -133 -84 -115 -11 6 -26 12 -34 12 -16 0 -31 31 -18 39 4 3 23
47 41 96 66 178 81 217 101 257 11 23 20 47 20 54 0 15 32 36 40 26 3 -4 17
-13 33 -19z m-2387 -169 c14 -33 14 -37 -3 -50 -10 -7 -22 -14 -26 -14 -5 0
-19 -8 -32 -18 l-24 -19 56 -99 c87 -155 133 -243 133 -251 0 -10 -57 -43 -75
-43 -7 0 -23 19 -35 43 -11 23 -25 49 -30 57 -12 18 -72 126 -107 190 -32 60
-37 64 -56 45 -9 -9 -32 -22 -51 -30 l-34 -15 -22 36 c-11 20 -20 37 -18 38 2
1 19 14 39 28 19 14 51 33 70 42 19 8 66 33 104 55 39 22 76 40 83 41 7 0 20
-16 28 -36z m2782 -1 c15 -10 30 -21 33 -26 3 -5 9 -8 13 -7 12 2 188 -103
193 -116 5 -14 -14 -55 -30 -66 -6 -3 -32 4 -57 17 -25 13 -51 20 -57 17 -6
-4 -21 -25 -33 -47 -12 -22 -30 -53 -40 -70 -11 -16 -29 -48 -40 -70 -22 -44
-42 -77 -50 -85 -3 -3 -11 -17 -17 -32 -14 -30 -34 -31 -78 -2 -31 20 -33 16
54 163 38 64 80 136 93 162 l25 45 -31 19 c-17 11 -39 23 -50 27 -14 6 -17 14
-12 34 14 54 39 65 84 37z m-1278 -567 c41 -3 86 -8 100 -11 14 -3 54 -10 90
-16 36 -5 101 -19 145 -30 100 -26 97 -25 115 -32 8 -3 44 -15 80 -27 36 -12
83 -29 105 -38 69 -28 305 -151 321 -167 9 -8 19 -15 24 -15 12 0 204 -141
213 -156 4 -8 12 -14 18 -14 10 0 212 -199 269 -266 54 -64 70 -84 70 -89 0
-4 55 -82 80 -112 6 -7 15 -24 22 -38 6 -14 15 -25 20 -25 4 0 8 -6 8 -14 0
-8 6 -21 13 -28 11 -12 109 -207 127 -253 4 -11 15 -36 23 -55 19 -45 89 -269
92 -295 3 -19 24 -148 41 -240 8 -50 14 -476 6 -490 -7 -11 -9 -22 -17 -85 -3
-25 -8 -58 -11 -73 -3 -16 -8 -39 -10 -53 -2 -13 -6 -35 -8 -48 -7 -41 -87
-290 -98 -303 -6 -7 -7 -13 -3 -13 3 0 -3 -16 -15 -35 -12 -19 -19 -35 -16
-35 7 0 -79 -166 -96 -187 -6 -7 -7 -13 -3 -13 4 0 -3 -15 -17 -32 -13 -18
-30 -45 -37 -60 -8 -16 -18 -28 -23 -28 -4 0 -8 -5 -8 -11 0 -10 -90 -136
-140 -194 -27 -31 -255 -258 -280 -278 -14 -11 -74 -56 -105 -79 -5 -4 -23
-18 -40 -31 -16 -13 -46 -32 -65 -43 -19 -10 -37 -22 -40 -25 -5 -6 -182 -103
-190 -104 -3 -1 -32 -14 -65 -30 -67 -31 -72 -33 -170 -68 -82 -30 -114 -40
-135 -42 -15 -2 -79 -19 -135 -35 -16 -5 -52 -12 -80 -15 -27 -2 -63 -7 -80
-11 -16 -3 -55 -7 -85 -9 -30 -2 -57 -4 -60 -5 -11 -4 -339 -1 -363 4 -14 2
-51 7 -83 11 -33 4 -75 11 -94 15 -19 5 -47 12 -62 15 -16 3 -40 7 -55 10 -16
3 -46 11 -68 17 -22 7 -42 12 -45 13 -23 5 -88 28 -185 64 -32 13 -210 96
-215 101 -3 3 -31 19 -62 35 -32 17 -58 33 -58 38 0 4 -5 7 -11 7 -12 0 -108
66 -203 139 -33 25 -114 100 -180 167 -123 122 -148 149 -188 207 -12 18 -25
34 -28 37 -10 8 -105 151 -133 200 -28 50 -105 204 -131 261 -18 41 -84 235
-89 265 -2 10 -7 26 -10 34 -9 26 -26 103 -33 155 -3 28 -7 52 -9 55 -17 28
-25 413 -12 555 7 76 10 98 22 163 9 40 12 62 19 112 4 24 10 46 14 50 7 5 10
14 18 54 2 11 11 42 20 70 14 44 27 78 64 171 44 110 165 326 231 414 21 28
37 51 34 51 -3 0 3 8 12 18 10 10 36 40 57 68 45 55 266 279 266 268 0 -4 8 2
18 12 23 27 163 130 237 177 66 41 332 175 362 182 10 3 59 19 108 36 102 35
162 51 255 68 36 7 74 14 85 16 11 2 20 4 20 5 0 2 32 7 109 14 39 4 71 8 72
9 4 4 268 -1 344 -7z m-1741 -4182 c48 -42 48 -36 -12 -163 -23 -47 -41 -88
-42 -91 0 -3 -22 -50 -49 -105 -26 -55 -53 -113 -60 -129 l-14 -28 -41 37
c-40 36 -41 39 -26 61 24 38 18 56 -37 105 l-53 47 -32 -19 c-40 -25 -74 -17
-96 21 -20 33 -21 40 -7 40 10 0 89 48 100 61 3 3 12 9 20 12 8 4 35 21 60 37
25 16 60 36 78 46 17 9 32 20 32 25 0 5 6 9 13 10 6 0 35 15 62 34 28 18 53
34 56 34 4 1 25 -15 48 -35z m3224 22 c34 -14 67 -44 134 -122 23 -27 51 -60
63 -74 53 -61 67 -117 41 -169 -37 -71 -113 -116 -177 -103 -28 5 -101 72
-182 166 -46 54 -49 55 -28 6 16 -39 9 -73 -32 -153 -32 -64 -36 -86 -17 -111
15 -19 15 -19 45 2 16 12 33 22 38 22 5 0 21 11 36 25 35 33 60 32 86 -4 l21
-30 -23 -21 c-33 -31 -206 -140 -222 -140 -7 0 -19 14 -26 30 -7 17 -16 30
-19 30 -14 0 -45 76 -46 115 -1 28 9 59 32 102 18 34 33 73 33 86 0 24 -33 67
-51 67 -13 0 -57 -29 -89 -58 -14 -12 -33 -25 -42 -28 -23 -7 -23 -19 0 -52
40 -58 111 -212 117 -255 10 -66 -14 -110 -78 -142 -58 -29 -107 -32 -145 -9
-30 18 -82 87 -82 108 0 8 -4 16 -9 18 -5 2 -23 33 -40 71 -34 74 -45 86 -29
33 14 -45 1 -76 -63 -152 -36 -43 -49 -66 -49 -89 0 -18 3 -34 6 -38 3 -3 42
7 86 24 44 16 86 29 93 29 8 0 19 -17 24 -37 9 -32 8 -40 -6 -50 -9 -7 -24
-13 -33 -13 -9 0 -20 -4 -26 -9 -11 -10 -56 -26 -140 -50 l-61 -18 -24 71
c-31 95 -31 95 -12 141 19 44 23 49 71 99 36 39 43 87 16 113 -18 18 -82 12
-96 -9 -4 -7 -8 -10 -8 -5 0 4 -18 -2 -40 -13 l-40 -20 -15 36 c-18 43 -16 48
38 76 120 63 214 60 249 -7 12 -23 13 -21 11 28 -1 46 2 56 30 85 59 62 147
81 203 46 24 -15 27 -16 16 -2 -21 27 -23 61 -4 77 41 36 98 78 117 85 51 19
94 18 124 -3 16 -12 31 -21 34 -21 2 0 -3 20 -11 44 -15 41 -15 46 1 64 9 10
17 24 17 30 0 12 75 76 100 85 26 9 49 8 83 -7z m-2968 -215 c28 -16 63 -43
79 -60 17 -17 36 -31 43 -31 7 0 46 -17 85 -39 40 -21 98 -49 128 -61 30 -13
63 -30 72 -38 9 -8 22 -11 27 -7 6 3 11 2 11 -3 0 -5 6 -9 13 -9 35 0 158 -47
189 -73 83 -69 45 -229 -63 -261 -44 -14 -43 -11 -29 -59 6 -19 13 -51 16 -70
3 -19 8 -42 11 -50 3 -8 7 -23 8 -33 2 -20 -21 -20 -76 2 -28 10 -26 6 -55
156 -8 40 -26 78 -40 82 -9 3 -30 -63 -25 -75 1 -1 -5 -15 -12 -30 -8 -15 -19
-39 -25 -54 -10 -25 -13 -25 -44 -14 -60 21 -59 19 -28 114 103 304 104 312
58 312 -10 0 -18 5 -18 10 0 6 -9 10 -19 10 -11 0 -23 5 -26 10 -6 10 -145
-256 -166 -317 -7 -22 -17 -33 -29 -33 -26 0 -68 20 -74 36 -3 7 27 77 65 156
39 79 78 158 86 176 9 17 14 34 12 35 -2 2 -29 16 -59 31 -51 26 -148 91 -160
107 -5 7 -27 12 -46 10 -7 0 -19 -12 -28 -25 -15 -24 -14 -27 34 -97 60 -87
62 -113 18 -187 -35 -58 -89 -95 -128 -87 -42 8 -110 47 -157 90 l-48 42 20
37 c11 20 22 36 24 36 10 0 81 -53 81 -60 0 -4 14 -13 30 -20 17 -7 30 -16 30
-21 0 -5 13 -3 30 6 44 23 48 57 14 107 -58 82 -64 94 -64 121 0 41 27 92 66
127 47 40 100 41 169 1z m933 -367 c104 -39 123 -100 89 -289 -19 -106 -38
-147 -82 -181 -63 -48 -178 -35 -237 26 -24 26 -48 106 -39 135 2 6 5 24 7 40
19 154 36 204 84 249 22 20 40 34 40 31 0 -3 7 -2 15 3 22 12 70 7 123 -14z
m880 -11 c3 -28 0 -33 -25 -38 -55 -13 -55 -13 -47 -47 4 -18 8 -42 9 -53 1
-11 6 -40 10 -65 4 -25 9 -54 11 -65 1 -11 3 -20 4 -20 2 0 10 -42 14 -75 2
-14 4 -28 5 -32 0 -4 20 -7 43 -5 37 2 42 -1 49 -25 8 -31 3 -37 -35 -40 -14
-1 -26 -5 -26 -8 0 -3 -10 -5 -22 -6 -13 0 -39 -4 -58 -8 -19 -3 -55 -8 -79
-9 -36 -2 -45 2 -51 19 -13 34 1 45 72 53 4 1 5 11 2 24 -2 12 -6 40 -9 62 -5
46 -14 103 -20 125 -2 8 -7 42 -11 75 -3 33 -8 63 -10 67 -4 6 -73 0 -82 -7
-1 -1 4 -17 11 -36 7 -19 12 -45 11 -59 -10 -112 -55 -144 -210 -149 -21 -1
-22 -5 -20 -98 l1 -98 -39 -3 c-21 -2 -43 1 -48 6 -5 5 -11 60 -13 123 -3 63
-7 171 -10 240 -5 115 -3 127 12 131 10 2 68 4 128 4 93 -1 115 -4 140 -21 16
-11 26 -15 22 -9 -12 21 18 44 64 49 26 3 58 8 70 11 13 3 35 7 49 10 13 3 26
6 27 8 1 1 15 2 30 1 24 0 28 -5 31 -32z"/>
<path d="M4082 6408 c-7 -27 -12 -56 -12 -63 0 -13 70 -32 100 -26 24 5 40 34
37 71 -2 31 -6 36 -42 48 -72 24 -71 24 -83 -30z"/>
<path d="M2848 6335 c0 -25 -2 -63 -3 -85 l-1 -40 35 4 c20 3 38 5 41 6 3 2 9
2 13 1 11 -2 11 -2 -33 87 -19 39 -38 71 -42 71 -5 1 -9 -19 -10 -44z"/>
<path d="M2062 4871 c-8 -4 -12 -10 -11 -12 5 -6 -54 -123 -66 -131 -5 -4 -6
-8 -1 -8 5 0 2 -8 -7 -17 -22 -25 -28 -81 -7 -68 6 4 23 -1 38 -11 62 -42 217
-113 220 -101 6 21 26 61 44 88 10 14 15 29 11 33 -3 3 -1 6 5 6 7 0 12 9 12
20 0 11 4 20 9 20 5 0 12 12 16 27 5 22 1 32 -20 50 -14 13 -34 23 -45 23 -10
0 -20 3 -22 8 -4 8 -114 67 -143 76 -11 3 -26 2 -33 -3z"/>
<path d="M2359 4673 c-13 -27 -27 -50 -32 -51 -4 -2 -5 -8 -1 -13 3 -5 0 -9
-5 -9 -6 0 -11 -6 -11 -13 0 -7 -9 -29 -20 -49 -18 -35 -18 -74 0 -63 5 3 11
1 15 -5 6 -10 90 -51 115 -56 8 -2 20 -10 26 -18 6 -9 18 -16 26 -16 8 0 23
-7 34 -15 27 -20 44 -18 44 5 0 11 5 20 10 20 5 0 9 3 8 8 -2 12 21 62 43 93
11 16 17 29 13 29 -4 0 0 8 9 18 10 10 14 22 10 25 -3 4 -1 7 5 7 26 0 10 21
-28 37 -22 10 -40 21 -40 25 0 5 -6 8 -14 8 -15 0 -122 55 -140 71 -22 20 -44
7 -67 -38z"/>
<path d="M1924 4598 c-5 -7 -32 -60 -61 -118 -47 -94 -50 -106 -35 -115 9 -5
19 -10 22 -10 3 0 16 -7 30 -15 14 -8 52 -27 85 -43 33 -16 66 -34 74 -40 24
-20 42 -16 54 11 6 15 17 33 24 40 12 12 16 27 11 35 -1 1 11 21 25 44 15 24
27 49 27 57 0 8 5 16 12 18 13 5 -117 82 -197 118 -27 12 -53 24 -57 26 -4 3
-10 -1 -14 -8z"/>
<path d="M2695 4550 c-3 -5 -3 -10 2 -10 4 0 3 -4 -2 -8 -15 -10 -65 -107 -65
-125 0 -8 -5 -17 -11 -19 -6 -2 -17 -18 -25 -36 -7 -18 -9 -30 -5 -27 5 2 11
-2 15 -10 3 -8 11 -15 18 -15 7 0 29 -9 48 -20 49 -28 139 -70 149 -70 5 0 14
-7 21 -15 11 -14 15 -11 27 17 8 18 21 44 29 58 8 14 28 54 45 88 29 61 29 65
12 78 -10 7 -21 14 -24 14 -3 0 -38 17 -77 39 -38 21 -82 41 -96 45 -14 3 -26
11 -26 16 0 13 -27 13 -35 0z"/>
<path d="M2209 4378 c-17 -35 -37 -70 -44 -78 -7 -8 -15 -24 -17 -35 -3 -11
-9 -27 -12 -36 -5 -12 3 -22 29 -38 20 -11 40 -21 45 -21 5 0 32 -14 61 -30
28 -17 56 -32 63 -33 6 -1 13 -4 16 -7 3 -3 14 -10 26 -16 18 -11 22 -7 48 47
15 32 32 61 37 65 5 3 7 10 4 15 -4 5 -2 9 2 9 14 0 45 79 39 97 -4 9 -9 13
-13 9 -3 -3 -21 5 -39 19 -18 14 -42 26 -54 28 -12 2 -26 10 -31 18 -5 8 -9
10 -9 4 0 -7 -3 -7 -8 0 -9 13 -79 45 -97 45 -8 0 -29 -28 -46 -62z"/>
<path d="M3001 4364 c-12 -19 -21 -41 -21 -49 0 -7 -3 -15 -7 -17 -5 -1 -21
-29 -37 -60 -15 -32 -33 -58 -39 -58 -5 0 0 -9 13 -20 13 -11 29 -20 36 -20 7
0 20 -7 28 -16 9 -9 22 -17 29 -18 22 -5 52 -19 58 -28 3 -5 13 -10 21 -12 8
-1 28 -10 44 -21 30 -20 55 -28 52 -17 -3 10 63 136 74 143 5 3 9 10 9 15 -1
5 6 23 16 41 9 18 15 34 13 36 -3 3 -64 34 -137 70 l-132 65 -20 -34z"/>
<path d="M1770 4300 c-7 -16 -17 -30 -23 -30 -6 0 -7 -3 -4 -6 4 -4 -12 -40
-33 -81 -22 -41 -38 -78 -36 -82 3 -4 53 -31 113 -61 59 -29 110 -57 111 -62
8 -18 41 -6 55 20 8 15 33 62 56 105 22 42 41 83 41 91 0 12 -175 106 -209
112 -7 2 -18 7 -24 13 -19 19 -34 12 -47 -19z"/>
<path d="M3504 4304 c-35 -12 -63 -39 -64 -60 0 -7 -7 -15 -16 -18 -9 -4 -14
-9 -11 -12 3 -4 -6 -24 -20 -47 -14 -22 -26 -45 -27 -51 -1 -6 -17 -40 -37
-76 -20 -36 -51 -95 -70 -132 -33 -65 -34 -67 -56 -53 -12 8 -28 15 -35 15 -7
0 -24 9 -37 19 l-24 18 21 31 c12 17 19 37 16 45 -3 8 -31 27 -62 41 -31 14
-77 37 -101 51 -24 14 -49 25 -54 25 -6 0 -18 7 -27 15 -16 15 -19 12 -40 -32
-12 -26 -25 -50 -29 -53 -4 -3 -20 -33 -36 -67 -16 -35 -34 -63 -40 -63 -5 0
3 -9 19 -19 17 -11 33 -18 38 -15 4 3 8 0 8 -5 0 -6 5 -11 11 -11 6 0 17 -7
25 -15 9 -8 24 -15 33 -15 10 0 24 -6 30 -14 7 -8 25 -18 41 -21 16 -3 34 -13
41 -21 17 -21 36 -17 42 9 4 12 12 31 20 41 14 19 16 19 68 -8 30 -16 55 -30
57 -31 3 -3 -146 -295 -160 -312 -6 -7 -8 -13 -5 -13 3 0 -7 -25 -22 -55 -25
-49 -28 -67 -23 -126 4 -35 88 -104 152 -124 22 -7 70 -42 70 -52 0 -7 -34
-78 -75 -158 -41 -79 -75 -151 -75 -159 0 -8 13 -21 29 -29 27 -13 31 -13 44
2 8 9 21 33 28 55 8 21 20 41 26 43 7 3 13 10 13 15 0 5 21 52 46 103 l46 93
62 -27 c34 -16 73 -34 87 -41 13 -7 31 -16 39 -20 24 -11 104 0 116 16 6 7 16
14 23 14 6 0 11 6 11 14 0 8 3 16 8 18 8 3 49 80 149 275 l67 131 58 -29 58
-29 -20 -40 c-11 -21 -20 -41 -20 -43 0 -2 30 -19 68 -38 37 -19 69 -37 70
-41 2 -5 10 -8 19 -8 8 0 27 -9 42 -19 15 -11 39 -23 53 -26 22 -6 27 -2 42
32 9 21 20 45 25 53 5 8 15 29 22 45 8 17 16 32 19 35 3 3 11 17 17 32 14 31
15 30 -77 78 -163 85 -174 89 -192 73 -10 -9 -16 -18 -14 -22 2 -3 -2 -15 -10
-25 -14 -21 -16 -20 -84 19 -14 8 -29 16 -35 18 -6 2 -6 9 2 18 6 8 19 34 29
59 10 25 21 47 24 50 4 3 29 50 56 105 27 55 53 103 59 107 5 4 6 10 3 13 -4
4 2 22 12 40 40 71 16 171 -49 199 -47 20 -303 153 -316 164 -5 4 -26 14 -45
22 -19 7 -40 18 -47 23 -19 14 -70 15 -109 1z m126 -101 c0 -19 -22 -63 -32
-63 -5 0 -6 -5 -3 -11 4 -6 -2 -20 -13 -32 -12 -12 -22 -26 -23 -32 -2 -13
-16 -45 -28 -65 -5 -8 -39 -76 -76 -150 -37 -74 -79 -158 -94 -187 -14 -28
-27 -57 -29 -64 -2 -8 -7 -16 -12 -19 -4 -3 -22 -36 -40 -75 -18 -38 -38 -77
-45 -85 -6 -8 -18 -31 -25 -50 -7 -19 -20 -41 -29 -48 -9 -7 -14 -14 -12 -15
8 -4 -31 -77 -40 -77 -10 0 -44 36 -44 48 -1 4 -4 16 -8 28 -7 19 5 57 32 104
4 8 33 65 62 125 30 61 59 113 64 117 6 4 7 8 3 8 -3 0 17 44 44 98 243 469
229 446 269 453 50 9 79 6 79 -8z"/>
<path d="M2531 4225 c-17 -36 -36 -65 -42 -65 -5 0 -8 -4 -4 -10 3 -5 -5 -26
-18 -47 -23 -36 -26 -70 -6 -57 5 3 9 -3 9 -12 0 -10 3 -14 6 -11 4 4 59 -20
122 -53 122 -63 125 -63 139 -10 3 14 9 27 13 30 4 3 24 38 44 78 39 77 38
102 -5 102 -11 0 -19 4 -19 8 0 5 -24 19 -52 33 -29 13 -75 36 -101 51 -26 16
-49 28 -51 28 -1 0 -17 -29 -35 -65z"/>
<path d="M2086 4146 c-9 -14 -16 -32 -16 -40 0 -8 -6 -21 -12 -28 -22 -22 -58
-99 -52 -109 3 -5 0 -9 -6 -9 -14 0 -9 -35 5 -35 6 -1 21 -7 35 -15 60 -34
116 -60 128 -60 6 0 12 -4 12 -9 0 -10 39 -27 53 -23 4 1 7 -3 7 -9 0 -6 5 -9
11 -7 6 2 10 7 9 12 -1 5 4 12 11 17 7 4 14 18 16 30 2 13 10 30 18 39 8 9 15
22 15 28 0 6 11 28 25 48 14 20 25 44 25 53 0 15 -76 58 -92 53 -5 -1 -8 3 -8
10 0 6 -3 8 -6 5 -4 -4 -19 2 -33 12 -31 22 -78 46 -107 55 -16 5 -26 0 -38
-18z"/>
<path d="M2404 3978 c-10 -18 -33 -64 -52 -103 -20 -38 -39 -71 -44 -73 -16
-7 -7 -20 32 -46 22 -14 40 -24 40 -20 0 3 16 -4 35 -16 60 -37 129 -70 147
-70 12 0 32 31 65 98 26 53 50 99 53 102 13 12 3 35 -15 39 -11 2 -31 11 -45
21 -29 21 -156 80 -170 80 -6 0 -10 5 -10 10 0 21 -20 9 -36 -22z"/>
<path d="M2690 3757 c-24 -51 -48 -94 -51 -97 -11 -8 -22 -61 -13 -59 11 3 84
-29 104 -45 8 -7 40 -23 70 -36 30 -13 63 -30 72 -38 15 -13 19 -9 39 37 13
28 26 51 30 51 4 0 10 12 13 26 4 14 18 43 31 65 14 21 25 42 25 46 0 6 -237
130 -269 140 -3 1 -26 -39 -51 -90z"/>
<path d="M4176 3795 c-9 -9 -16 -23 -16 -31 0 -8 -4 -14 -8 -14 -5 0 -17 -19
-27 -42 -10 -24 -31 -64 -46 -89 l-27 -46 27 -16 c79 -47 246 -126 252 -119 3
4 32 56 63 115 53 100 60 127 35 127 -5 0 -27 11 -49 25 -22 14 -40 23 -40 20
0 -2 -15 4 -32 15 -18 11 -44 25 -58 32 -14 6 -32 18 -41 25 -14 12 -19 11
-33 -2z"/>
<path d="M4436 3527 c-31 -62 -56 -116 -56 -119 0 -4 38 -25 85 -48 46 -23 87
-45 90 -50 3 -5 19 -11 36 -15 17 -4 33 -13 36 -21 9 -24 19 -16 38 29 10 23
25 49 32 58 7 8 14 25 16 38 2 12 9 26 17 31 7 4 18 24 25 44 11 30 10 36 -1
36 -8 0 -14 5 -14 10 0 6 -6 10 -12 10 -7 0 -26 7 -43 16 -67 36 -183 94 -188
94 -2 0 -30 -51 -61 -113z"/>
<path d="M4781 3418 c-17 -35 -42 -83 -56 -108 -13 -25 -25 -52 -25 -60 0 -14
54 -45 73 -41 5 1 6 -3 2 -9 -3 -5 -1 -11 4 -11 21 -3 27 -5 76 -28 28 -13 58
-31 67 -38 25 -22 51 -8 73 40 10 23 27 53 37 66 10 13 18 32 18 42 0 11 4 19
9 19 13 0 22 42 11 55 -5 6 -49 31 -97 55 -49 24 -91 48 -95 54 -4 6 -8 7 -8
2 0 -5 -7 -3 -15 4 -8 7 -15 9 -15 5 0 -4 -6 -2 -14 4 -12 10 -20 1 -45 -51z"/>
<path d="M4335 3327 c-11 -23 -32 -63 -47 -89 -15 -27 -25 -48 -21 -48 4 0 -4
-11 -17 -25 -13 -14 -22 -27 -19 -29 3 -3 127 -70 209 -113 14 -7 30 -13 37
-13 6 0 13 -6 16 -12 6 -19 10 -13 76 115 l61 118 -47 21 c-26 11 -51 24 -57
29 -10 9 -163 89 -169 89 -1 0 -11 -19 -22 -43z"/>
<path d="M5100 3253 c-17 -32 -43 -82 -57 -111 l-26 -54 28 -24 c26 -22 34
-26 51 -23 4 0 10 -3 13 -8 11 -17 161 -85 178 -81 16 3 116 168 107 177 -2 2
1 10 7 18 9 10 8 18 -6 33 -10 11 -21 17 -25 15 -5 -3 -10 -2 -12 2 -3 8 -208
113 -220 113 -3 0 -21 -26 -38 -57z"/>
<path d="M3886 3242 c-3 -9 -10 -25 -16 -34 -33 -58 -90 -175 -90 -187 0 -6 6
-11 14 -11 7 0 25 -9 40 -21 14 -11 26 -17 26 -13 0 4 8 0 18 -9 10 -10 22
-14 25 -10 4 3 7 1 7 -5 0 -7 8 -12 19 -12 10 0 30 -9 43 -20 14 -11 37 -24
51 -29 25 -10 28 -7 58 49 17 32 31 62 31 67 0 4 5 15 12 23 6 8 19 32 29 52
17 38 12 49 -21 54 -8 2 -22 10 -31 18 -10 9 -24 16 -32 16 -9 0 -24 8 -35 18
-11 9 -26 18 -34 20 -8 2 -26 11 -40 20 -14 8 -27 15 -30 15 -3 -1 -12 3 -21
8 -12 6 -18 4 -23 -9z"/>
<path d="M4660 3185 c0 -9 -4 -21 -10 -28 -18 -22 -82 -151 -86 -174 -3 -15 2
-26 16 -33 11 -6 20 -8 20 -4 0 3 16 -6 35 -20 19 -15 35 -25 35 -22 0 3 34
-13 76 -35 42 -22 78 -38 79 -37 1 2 26 50 55 108 29 58 56 109 61 114 9 10
-8 22 -83 57 -27 12 -48 26 -48 32 0 6 -3 8 -6 4 -4 -3 -27 5 -53 18 -68 34
-91 40 -91 20z"/>
<path d="M4194 3058 c-9 -18 -32 -64 -51 -103 -19 -38 -38 -77 -43 -86 -7 -14
2 -22 48 -43 31 -15 90 -44 131 -66 40 -21 79 -36 86 -34 14 6 34 42 50 92 4
12 11 22 16 22 5 0 9 8 9 18 0 9 9 28 20 42 28 36 25 57 -12 75 -18 9 -76 38
-128 65 -52 27 -98 49 -102 49 -3 1 -14 -14 -24 -31z"/>
<path d="M4983 3019 c-3 -11 -9 -19 -13 -19 -8 0 -25 -49 -22 -62 1 -5 -2 -8
-7 -8 -11 0 -61 -102 -61 -122 1 -10 197 -115 271 -146 5 -2 11 8 15 22 3 14
10 26 14 26 4 0 11 11 14 25 4 14 13 33 21 43 8 9 15 20 15 24 0 4 12 28 25
53 l25 45 -25 6 c-14 3 -25 9 -25 13 0 6 -55 33 -65 31 -3 0 -17 8 -32 20 -14
11 -33 20 -43 20 -9 0 -25 9 -34 19 -25 28 -67 34 -73 10z"/>
<path d="M4530 2920 c0 -6 -4 -8 -10 -5 -5 3 -10 0 -10 -8 0 -7 -11 -36 -25
-63 -14 -27 -25 -54 -25 -61 0 -6 -3 -13 -7 -15 -5 -1 -16 -18 -27 -37 -21
-38 -19 -40 47 -68 20 -8 37 -19 37 -24 0 -5 6 -9 13 -9 6 0 43 -16 80 -35 38
-19 71 -35 75 -35 4 0 29 41 55 90 27 50 45 90 41 90 -4 0 2 10 13 23 17 18
19 24 8 34 -7 6 -16 9 -19 6 -3 -4 -6 -1 -6 5 0 6 -13 13 -30 17 -16 4 -30 11
-30 16 0 6 -4 8 -9 5 -5 -4 -11 -2 -13 2 -2 7 -62 38 -150 80 -5 2 -8 -1 -8
-8z"/>
<path d="M2815 2860 c-4 -6 -10 -8 -14 -6 -4 3 -14 -6 -21 -20 -12 -21 -12
-31 0 -62 14 -40 66 -110 115 -155 33 -31 118 -78 150 -84 11 -2 34 -6 50 -9
50 -9 145 -12 150 -4 3 4 15 5 29 3 36 -7 52 25 44 93 -1 12 -9 14 -42 8 -23
-3 -45 -9 -51 -13 -11 -7 -84 -6 -125 2 -35 7 -110 40 -110 49 0 5 -5 8 -11 8
-22 0 -87 78 -104 126 -26 70 -44 89 -60 64z"/>
<path d="M2633 2746 l-21 -23 28 -49 c15 -27 37 -58 49 -68 11 -11 21 -23 21
-28 0 -4 19 -25 41 -46 49 -44 149 -115 149 -105 0 3 10 -3 23 -15 13 -12 26
-20 29 -16 4 3 16 0 28 -6 12 -6 34 -14 48 -16 15 -3 34 -8 42 -11 27 -12 100
-17 213 -14 l48 1 -3 48 c-3 46 -4 47 -37 48 -19 1 -50 -2 -67 -6 -18 -4 -35
-5 -38 -2 -3 2 -25 6 -48 8 -52 4 -178 44 -178 56 0 5 -4 7 -9 4 -17 -11 -181
118 -181 143 0 5 -3 11 -7 13 -12 5 -49 61 -57 86 -10 29 -44 28 -73 -2z"/>
<path d="M4812 2690 c-18 -38 -37 -72 -42 -75 -6 -4 -10 -15 -10 -25 0 -10 -7
-26 -16 -35 -13 -12 -14 -19 -4 -30 7 -8 21 -15 30 -15 10 0 20 -3 22 -7 2 -5
50 -32 107 -61 100 -51 140 -59 127 -26 -3 8 -2 12 4 9 9 -6 14 8 11 28 0 4 3
7 7 7 5 0 14 16 22 35 8 19 18 35 23 35 5 0 6 7 3 16 -3 8 -2 13 3 10 13 -9
21 33 11 60 -5 13 -28 32 -52 44 -24 11 -70 36 -103 54 -102 57 -105 56 -143
-24z"/>
<path d="M2507 2666 c-15 -14 -27 -28 -27 -31 0 -12 35 -69 60 -98 14 -16 25
-32 25 -35 0 -10 117 -122 127 -122 5 0 11 -6 14 -14 3 -8 18 -19 33 -25 15
-7 35 -22 45 -36 10 -13 24 -21 31 -19 7 3 15 -2 18 -10 4 -9 13 -13 22 -10 9
4 15 1 15 -9 0 -10 7 -13 18 -10 10 2 39 -5 66 -16 26 -12 52 -19 57 -15 5 3
9 1 9 -3 0 -5 8 -9 18 -10 9 -1 42 -4 72 -7 96 -11 210 -10 221 1 7 7 8 26 4
51 -6 35 -9 39 -33 36 -15 -2 -38 -4 -52 -6 -14 -1 -31 1 -38 6 -7 4 -19 3
-26 -3 -7 -6 -15 -9 -18 -6 -3 3 -25 8 -49 11 -24 4 -52 10 -61 15 -10 6 -18
7 -18 5 0 -3 -18 1 -41 9 -23 8 -45 12 -50 9 -5 -3 -9 -1 -9 4 0 9 -32 21 -53
21 -5 0 -16 8 -25 18 -9 10 -28 24 -42 30 -59 27 -188 154 -228 225 -15 27
-32 48 -39 48 -6 0 -13 5 -15 11 -2 6 -16 -1 -31 -15z"/>
<path d="M1765 1359 c-91 -60 -98 -67 -83 -82 7 -8 25 -21 40 -31 27 -18 27
-18 34 8 3 14 10 26 15 26 5 0 9 6 9 14 0 7 12 34 26 60 14 25 24 46 22 45 -1
0 -30 -18 -63 -40z"/>
<path d="M5048 1405 c-7 -16 -8 -32 -2 -44 9 -19 94 -120 146 -173 28 -30 62
-36 82 -15 31 31 25 45 -65 151 -77 91 -94 106 -120 106 -22 0 -32 -6 -41 -25z"/>
<path d="M4557 1085 c-29 -21 -20 -66 40 -182 52 -102 60 -113 85 -113 29 0
58 23 58 45 0 21 -108 231 -126 246 -22 18 -37 19 -57 4z"/>
<path d="M2641 922 c-7 -26 -15 -54 -18 -63 -5 -16 14 -25 78 -35 29 -5 54 17
64 58 7 29 -8 44 -76 72 l-35 15 -13 -47z"/>
<path d="M3030 861 c-34 -6 -60 -38 -66 -81 -1 -8 -4 -28 -8 -45 -3 -16 -9
-57 -12 -91 -6 -55 -4 -63 17 -83 22 -21 69 -24 97 -7 12 7 32 70 38 125 3 19
8 51 13 73 11 47 10 57 -9 84 -20 28 -30 31 -70 25z"/>
<path d="M3522 821 c-10 -6 -12 -20 -8 -47 3 -22 5 -47 6 -56 0 -14 9 -16 49
-14 27 1 56 8 65 15 21 17 15 80 -9 97 -21 16 -83 18 -103 5z"/>
</g>
</svg>
